<?xml version="1.0" encoding="UTF-8" standalone="no"?>
<svg
   fill="#ffffff"
   width="32"
   height="32"
   version="1.1"
   id="svg1"
   sodipodi:docname="FarmlandIconWhite.svg"
   inkscape:version="1.4.2 (f4327f4, 2025-05-13)"
   xmlns:inkscape="http://www.inkscape.org/namespaces/inkscape"
   xmlns:sodipodi="http://sodipodi.sourceforge.net/DTD/sodipodi-0.dtd"
   xmlns="http://www.w3.org/2000/svg"
   xmlns:svg="http://www.w3.org/2000/svg">
  <defs
     id="defs1" />
  <sodipodi:namedview
     id="namedview1"
     pagecolor="#ffffff"
     bordercolor="#000000"
     borderopacity="0.25"
     inkscape:showpageshadow="2"
     inkscape:pageopacity="0.0"
     inkscape:pagecheckerboard="0"
     inkscape:deskcolor="#d1d1d1"
     inkscape:zoom="16"
     inkscape:cx="7.53125"
     inkscape:cy="13.15625"
     inkscape:window-width="1920"
     inkscape:window-height="991"
     inkscape:window-x="-9"
     inkscape:window-y="-9"
     inkscape:window-maximized="1"
     inkscape:current-layer="svg1" />
  <path
     d="m 23.617025,18.03596 -0.136265,3.007273 -2.111255,0.04393 -2.038277,0.287251 -1.164303,-0.192301 -1.338917,0.02569 c 0,0 -0.424038,-0.356584 -4.687945,-0.113272 l -3.0344325,-0.135722 -3.226361,0.172267 -1.2626069,-0.03163 -6.546e-4,-1.524502 -1.0699358,0.02444 -0.1139657,1.27629 -1.3930614,0.02942 0.063263,3.941622 -0.1241915,3.301656 14.3212987,-0.08279 13.783139,0.0414 -0.09292,-10.1362 1.997192,0.189027 -3.932729,-3.737589 c -0.859889,-2.002061 -0.91868,-1.880294 -1.748501,-0.209516 -0.538915,1.085061 -4.645426,3.86996 -4.645426,3.86996 z m -11.145787,0.433064 c -9.9460116,-21.6152077 -9.9460116,-21.6152077 0,0 z m 6.617922,2.989026 c 0,0 -3.930675,-0.0086 0,0 z m 9.251209,1.167592 h -1.394873 -1.394874 v -2.202501 c 0,0 -0.08279,-0.877791 0,-1.291762 l 0.910076,-0.144282 0.934425,-0.169289 0.945246,0.313599 v 1.291762 z m -21.8957633,-1.436941 -6.546e-4,-1.524502 -1.0699358,0.02444 -0.1139657,1.27629 m 3.7641162,0.465686 -6.546e-4,-1.524502 -1.0699358,0.02444 -0.1139657,1.27629 m 3.7705853,0.223772 -6.55e-4,-1.524502 -1.069936,0.02444 -0.113966,1.27629 m 3.764117,0.223772 -6.55e-4,-1.524502 -1.069936,0.02444 -0.113965,1.27629 m 3.722719,0.306567 -6.55e-4,-1.524502 -1.069936,0.02444 -0.113965,1.27629 m 3.522201,0.223772 -6.55e-4,-1.524502 -1.069936,0.02444 -0.113966,1.27629 m 3.350146,0.472154 -6.55e-4,-1.524502 -1.069936,0.02444 -0.113966,1.27629"
     id="path1"
     style="fill:#ffffff"
     sodipodi:nodetypes="cccccccccccccccccccccscccccccccccccccccccccccccccccccccccccccccccc" />
  <rect
     style="fill:#ffffff"
     id="rect1"
     width="1.8734213"
     height="4.0395646"
     x="23.608036"
     y="13.231039" />
  <path
     style="fill:#ffffff"
     id="path19"
     d="m 5.3782216,20.825366 c -0.010318,0.02562 -0.02261,0.05036 -0.031825,0.07642 -0.00477,0.01312 -0.00731,0.02687 -0.0096,0.04059 0,0 0.3287432,0.171264 0.3287432,0.171264 v 0 c 6.34e-5,-0.01195 5.838e-4,-0.02389 0.00305,-0.03564 0.00549,-0.02284 0.013294,-0.04657 0.031091,-0.06287 z" />
  <path
     style="fill:#ffffff"
     id="path20"
     d="m 24.589799,12.059779 c -0.0088,-0.308133 -0.09252,-0.607079 -0.181488,-0.900079 -0.04813,-0.136284 -0.09389,-0.275001 -0.164081,-0.402079 -0.01233,-0.02232 -0.0565,-0.09877 -0.08766,-0.116469 -0.115666,-0.06568 -0.236521,-0.121772 -0.354781,-0.182659 -0.0088,0.01364 -0.02294,0.02507 -0.02649,0.04093 -0.0087,0.03864 0.02852,0.113867 0.06482,0.130265 0.122246,0.05523 0.240768,0.129971 0.373394,0.150091 0.03382,0.0051 0.03868,-0.05643 0.05803,-0.08464 0.01679,-0.04532 0.03833,-0.08916 0.05037,-0.135966 0.05532,-0.21516 0.04361,-0.436054 -0.01555,-0.6493058 C 24.254163,9.7217268 24.1869,9.5966006 24.105031,9.4222424 24.028391,9.2928138 23.995365,9.2200451 23.898747,9.1120243 c -0.02388,-0.0267 -0.04959,-0.052794 -0.07993,-0.071834 -0.150869,-0.094668 -0.268767,-0.216459 -0.439045,-0.2179435 0.109861,0.058347 0.2093,0.1433258 0.329583,0.175041 0.028,0.00738 0.03177,-0.049837 0.03803,-0.078112 0.01304,-0.058956 0.02471,-0.1200142 0.01911,-0.1801353 C 23.750406,8.5667302 23.676664,8.4006617 23.577458,8.261147 23.524066,8.1860623 23.453893,8.124453 23.392111,8.056106 23.139165,7.872939 23.074317,7.8092465 22.720246,7.6760759 c -0.07614,-0.028639 -0.196566,-0.0087 -0.245293,0.065867 -0.05578,0.085354 -0.01127,0.1681245 0.01092,0.2520061 0.03238,0.050232 0.05749,0.1059686 0.09713,0.1506962 0.145573,0.1642787 0.463615,0.3222847 0.618096,0.3917795 0.08312,0.037394 0.232297,0.044573 0.315375,-0.00795 0.038,-0.024021 0.0561,-0.070253 0.08415,-0.1053789 0.0022,-0.054201 0.01598,-0.1091858 0.0065,-0.1626031 C 23.582377,8.1202254 23.48632,7.9663573 23.404667,7.857081 23.295487,7.7109653 23.158129,7.5768146 23.022148,7.4563376 22.958058,7.3995556 22.889882,7.3475603 22.823749,7.2931716 22.605215,7.1277136 22.374405,6.9729489 22.119271,6.8677599 c -0.01506,-0.00621 -0.03676,0.012782 -0.03943,0.028846 -0.01095,0.06577 0.05466,0.1042705 0.09188,0.138542 0.156969,0.1019017 0.262859,0.1752488 0.47305,0.246397 0.02415,0.00817 0.05344,-0.016037 0.06637,-0.038007 0.06917,-0.1174765 -0.07336,-0.3548002 -0.118688,-0.451552 C 22.480332,6.5779395 22.370697,6.3627331 22.264229,6.1458292 22.24748,6.1117083 22.139145,5.8685658 22.085675,5.8284687 21.966454,5.7390636 21.828657,5.6775727 21.700148,5.6021246 c -0.0294,0.017067 -0.06622,0.025264 -0.08819,0.051201 -0.04425,0.052244 -0.05132,0.1469799 -0.05002,0.2103196 5.05e-4,0.024681 -0.0084,0.058257 0.01125,0.073198 0.103769,0.078899 0.213424,0.161489 0.339745,0.1936756 0.03356,0.00855 0.0199,-0.066336 0.02985,-0.099503 C 21.92989,5.9631486 21.921546,5.8942603 21.904122,5.8274149 21.786514,5.376229 21.55809,4.9682247 21.315555,4.5742571 c -0.01313,-0.024776 -0.02903,-0.048272 -0.03938,-0.074328 -0.0011,-0.00284 0.0062,-0.00413 0.0088,-0.0026 0.01431,0.00828 0.02353,0.025134 0.03921,0.030395 0.02556,0.00857 0.05336,0.011079 0.08028,0.0097 0.100912,-0.00519 0.09658,-0.021753 0.17521,-0.083263 0.0147,-0.041547 0.03959,-0.080802 0.04409,-0.1246419 0.006,-0.058173 2.45e-4,-0.1180532 -0.01338,-0.1749209 -0.01671,-0.069739 -0.03899,-0.14 -0.07669,-0.2010051 -0.08832,-0.1429291 -0.234201,-0.2649142 -0.38167,-0.3417613 -0.164203,-0.085567 -0.337522,-0.1523671 -0.506283,-0.2285507 -0.07268,0.00647 -0.148158,-0.00161 -0.218026,0.01942 -0.203027,0.061096 -0.32221,0.2360444 -0.320205,0.4443233 0.0015,0.151514 0.04954,0.20972 0.115134,0.3370612 0.14643,0.1652658 0.190334,0.2390636 0.483011,0.3126033 0.03674,0.00923 0.0535,-0.05806 0.06262,-0.094825 0.01357,-0.054741 0.0063,-0.1128798 0.0029,-0.1691744 -0.0063,-0.1026471 -0.04225,-0.2983859 -0.05927,-0.3988871 -0.03348,-0.151377 -0.04605,-0.3096083 -0.09806,-0.4567483 -0.01427,-0.040373 -0.05634,-0.1355828 -0.09725,-0.1633266 -0.120801,-0.081932 -0.251225,-0.148689 -0.376838,-0.2230335 -0.03172,0.00445 -0.06469,0.00348 -0.09516,0.01335 -0.09713,0.031443 -0.178455,0.1086443 -0.240671,0.1862918 -0.02737,0.034153 -0.0503,0.071664 -0.07685,0.1064487 0.103876,0.049034 0.202274,0.1119429 0.311629,0.1471035 0.02176,0.007 -0.02569,-0.037975 -0.03587,-0.05844 -0.01817,-0.036431 -0.03238,-0.074678 -0.0489,-0.1118581 C 19.887054,3.1230602 19.817006,2.9739626 19.748706,2.824076 19.734678,2.792188 19.65754,2.6147196 19.637251,2.57607 19.620061,2.543327 19.604151,2.509067 19.580081,2.48099 19.557331,2.454447 19.529461,2.431549 19.498861,2.414632 19.101215,2.1947605 19.235426,2.2065115 18.988154,2.2160936 c -0.03216,0.00643 -0.06432,0.012851 -0.09648,0.019277 0,0 0.292554,0.2046098 0.292554,0.2046098 v 0 c 0.03053,-0.00498 0.06105,-0.00996 0.09158,-0.014946 0.191,0.00742 0.106409,0.022073 -0.107293,-0.140869 -0.0274,-0.020895 0.06335,0.030208 0.08795,0.054344 0.0265,0.026003 0.04336,0.06044 0.06184,0.092636 0.0304,0.052936 0.09706,0.2011966 0.120137,0.2512554 0.06735,0.1468253 0.1364,0.2932539 0.195937,0.4435013 0.01407,0.035522 0.0281,0.071134 0.03957,0.1075791 0.0077,0.024356 -0.0034,0.060264 0.01776,0.074516 0.108687,0.073112 0.234785,0.1162249 0.352178,0.1743373 0.05223,-0.091741 0.109303,-0.1799035 0.20409,-0.233859 0.02735,-0.015569 0.05657,-0.029703 0.08752,-0.035397 0.02763,-0.00508 0.05614,0.00254 0.08421,0.0038 -0.07788,-0.047536 -0.150877,-0.1042068 -0.233645,-0.1426086 -0.02649,-0.012289 0.04408,0.039008 0.06125,0.062624 0.0469,0.06449 0.06921,0.1370284 0.09056,0.212901 0.03106,0.1103712 0.05168,0.2254052 0.07421,0.3375308 0.02078,0.1233259 0.04846,0.2627253 0.05347,0.3884935 0.0019,0.048463 0.0031,0.097841 -0.0067,0.1453503 -0.0044,0.021468 -0.04913,0.039428 -0.03465,0.055878 0.0563,0.063955 0.132467,0.111186 0.210943,0.1443778 0.04343,0.01837 -0.06788,-0.065481 -0.101815,-0.098222 C 20.46351,4.2039184 20.413526,4.150722 20.40621,4.0051183 20.39641,3.8106047 20.5062,3.648095 20.697221,3.5954011 c 0.06637,-0.018309 0.137433,-0.00858 0.20615,-0.012872 -0.01694,-0.02927 -0.08316,-0.09772 -0.05082,-0.087811 0.08156,0.024992 0.150046,0.083366 0.215364,0.1382314 0.135406,0.1137369 0.196294,0.201176 0.237096,0.3688982 0.01244,0.051131 0.01667,0.1051051 0.01136,0.1574585 -0.0037,0.036638 -0.02526,0.069187 -0.03788,0.1037812 -0.02475,0.016577 -0.04624,0.039602 -0.07426,0.049731 -0.02763,0.00999 -0.05833,0.00984 -0.08769,0.00882 -0.01784,-6.182e-4 -0.199604,-0.051516 -0.167459,0.033873 0.01204,0.031983 0.03914,0.056029 0.05871,0.084044 0.0387,0.05435 0.07995,0.1069737 0.116097,0.1630517 0.212632,0.329842 0.396263,0.6910064 0.478887,1.0772568 0.01257,0.058745 0.01513,0.1191914 0.0227,0.1787872 -0.03191,0.1518883 -0.0359,0.094987 0.27407,0.2351428 0.02142,0.00969 -0.01887,-0.043789 -0.02159,-0.06714 -0.0052,-0.044965 -0.0016,-0.1373774 0.03397,-0.1759517 0.01595,-0.017293 0.04381,-0.017156 0.06572,-0.025734 -0.06912,-0.044327 -0.125399,-0.1281518 -0.207373,-0.1329794 -0.05346,-0.00315 0.07083,0.081005 0.09894,0.1265933 0.03781,0.061326 0.06552,0.1283302 0.09791,0.1926859 0.107682,0.2139927 0.215216,0.4280595 0.322332,0.642337 0.03863,0.08696 0.104974,0.2171298 0.122778,0.3175415 0.0042,0.023841 0.007,0.05152 -0.0051,0.072459 -0.0088,0.015078 -0.06097,0.00765 -0.04843,0.019762 0.06612,0.063886 0.154401,0.1000401 0.228599,0.1543298 0.02592,0.018966 -0.05565,-0.032094 -0.08347,-0.048141 -0.0224,-0.017381 -0.04379,-0.036153 -0.06721,-0.052142 -0.01324,-0.00904 -0.02997,-0.012564 -0.04239,-0.022694 -0.0024,-0.00194 0.0089,-0.00491 0.0064,-0.00669 -0.06854,-0.048631 -0.144668,-0.086458 -0.210778,-0.1383466 -0.105801,-0.083042 0.508381,0.327404 0.33586,0.2236223 0.06775,0.05421 0.137644,0.1058439 0.203249,0.1626292 0.134443,0.1163675 0.270917,0.2477314 0.378512,0.3902846 0.07749,0.1026633 0.166098,0.2458334 0.192929,0.3769659 0.0094,0.045723 -6.99e-4,0.093337 -0.001,0.1400054 -0.06909,0.08808 -0.06392,0.1192669 -0.196129,0.1175331 -0.05554,-7.284e-4 -0.120087,-0.068412 -0.163247,-0.033447 -0.0346,0.028033 0.139982,0.109345 0.108768,0.077581 -0.291612,-0.2967465 -0.03781,0.047041 -0.247964,-0.2614602 -0.01263,-0.040073 -0.03285,-0.078506 -0.03789,-0.120219 -0.0079,-0.065702 0.01171,-0.1256612 0.08441,-0.1434567 0.04386,-0.010736 0.115458,0.042591 0.135459,0.0021 0.01664,-0.033682 -0.458465,-0.3377153 0.116198,0.051495 0.06237,0.065807 0.133178,0.124535 0.187103,0.1974204 0.09382,0.1268072 0.170141,0.2886167 0.179405,0.4494988 0.0031,0.053973 -0.01234,0.1081796 -0.02925,0.1595266 -0.0088,0.026787 -0.06429,0.048685 -0.04658,0.070634 0.07818,0.096887 0.194502,0.1554606 0.291753,0.2331909 0.09636,0.010673 0.317423,0.1313987 -0.19042,-0.1354119 -0.03434,-0.01804 0.06527,0.042779 0.09312,0.069785 0.107729,0.104489 0.144261,0.1808581 0.227552,0.3109807 0.0874,0.1773178 0.151192,0.2859769 0.204007,0.4793666 0.05548,0.2031388 0.06556,0.4187056 0.0031,0.6213536 -0.01319,0.04279 -0.03636,0.08185 -0.05453,0.122775 -0.12766,0.148258 -0.07435,0.04377 0.217443,0.253564 0.01234,0.0089 -0.02798,-0.01289 -0.03948,-0.02283 -0.01107,-0.0096 -0.01799,-0.02311 -0.02698,-0.03466 -0.006,-0.0077 -0.01314,-0.01449 -0.01788,-0.02295 -0.0011,-0.002 8.87e-4,-0.0044 0.0013,-0.0066 -0.09342,-0.05825 -0.186079,-0.117743 -0.280256,-0.174763 -0.01754,-0.01062 0.03605,0.0207 0.05024,0.0355 0.02101,0.02192 0.03777,0.04769 0.05407,0.07331 0.07973,0.125324 0.13141,0.265848 0.183448,0.404033 0.02027,0.06341 0.04281,0.126142 0.06082,0.190231 0.06223,0.221418 0.105244,0.45312 0.09192,0.68387 z" />
  <path
     style="fill:#ffffff"
     id="path21"
     d="m 24.268467,11.786741 c 0.0028,0.04258 -0.0011,0.08542 -0.0056,0.127775 -0.0043,0.03445 -0.0097,0.06874 -0.01298,0.103314 -0.0028,0.03412 -0.0069,0.06815 -0.0112,0.102116 -0.0038,0.03631 -0.0162,0.07064 -0.02413,0.106022 -0.0056,0.02956 -0.007,0.0596 -0.0074,0.0896 -8.45e-4,0.02305 -1.94e-4,0.04632 0.0091,0.06784 0.0012,0.0028 0.01448,0.02605 0.01632,0.02928 0.01042,0.01931 0.0207,0.03866 0.03193,0.05751 0,0 0.339161,0.150863 0.339161,0.150863 v 0 c -0.01082,-0.019 -0.0239,-0.03666 -0.03274,-0.05678 -0.0044,-0.0083 -0.01084,-0.02128 -0.01637,-0.02896 -0.0027,-0.0038 -0.0066,-0.0067 -0.0092,-0.01055 -0.0082,-0.0122 -0.0079,-0.02601 -0.0075,-0.04009 4.57e-4,-0.02783 4.2e-4,-0.0558 0.0045,-0.0834 0.0064,-0.03627 0.01615,-0.07189 0.02136,-0.108403 0.008,-0.03439 0.01103,-0.0692 0.01671,-0.104006 0.0011,-0.03464 0.0039,-0.0692 0.0086,-0.103552 0.0051,-0.04292 0.0069,-0.08626 0.01188,-0.129214 z" />
  <path
     style="fill:#ffffff"
     id="path22"
     d="m 5.3167942,20.788855 c -0.00597,0.0208 -0.014329,0.04078 -0.02278,0.06066 -0.00732,0.02528 -0.013912,0.05074 -0.021652,0.07591 -0.00683,0.01827 -0.00854,0.0377 -0.00987,0.05699 -4.831e-4,0.01628 -7.133e-4,0.03254 -0.00178,0.04881 -4.711e-4,0.01344 0.00191,0.02669 0.0025,0.04009 1.633e-4,0.0098 3.568e-4,0.01962 7.931e-4,0.02942 3.667e-4,0.0104 1.088e-4,0.02079 -2.127e-4,0.03119 -0.00209,0.0095 7.55e-5,0.0189 0.00175,0.02826 5.302e-4,0.0046 -6.49e-5,0.0057 0.00247,0.0092 5.855e-4,7.98e-4 0.00177,0.0011 0.00216,0.002 9.265e-4,0.0022 5.844e-4,0.0048 0.00164,0.007 0.00205,0.0041 0.00955,0.01067 0.01237,0.01337 0.00257,0.0022 0.00514,0.0044 0.0077,0.0066 0,0 0.3399966,0.137645 0.3399966,0.137645 v 0 c -0.00231,-0.0019 -0.00461,-0.0039 -0.00692,-0.0058 -3.585e-4,-2.72e-4 -0.00793,-0.0063 -0.00957,-0.0067 -0.0013,-3.21e-4 -0.00288,0.0013 -0.00398,4.99e-4 -0.00282,-0.002 6.099e-4,-0.0077 -0.0067,-0.0075 -0.00546,-0.0055 0.00131,0.0019 -0.00329,-0.0053 -4.502e-4,-7.06e-4 -0.0015,-9.12e-4 -0.0019,-0.0016 -0.00146,-0.0027 -9.753e-4,-0.0064 -0.0039,-0.0085 -2.973e-4,-0.01054 -5.248e-4,-0.02108 -2.03e-4,-0.03163 3.784e-4,-0.01059 3.403e-4,-0.02119 -6.76e-4,-0.03175 -0.001,-0.01286 -0.0014,-0.02579 -0.00407,-0.03845 -0.0011,-0.01618 -0.00157,-0.03234 -0.00116,-0.04855 1.286e-4,-0.01728 9.804e-4,-0.03456 0.00387,-0.05162 0.00473,-0.02437 0.00957,-0.04897 0.018582,-0.07217 0.00664,-0.01841 0.014969,-0.03688 0.028448,-0.05136 z" />
  <path
     style="fill:#ffffff"
     id="path23"
     d="m 5.515319,20.775025 c -0.00202,0.01243 -0.00524,0.02465 -0.00761,0.037 -0.00246,0.01278 -0.00297,0.02124 -0.00433,0.03456 -7.477e-4,0.0078 -0.00122,0.01566 -0.00224,0.02345 -0.00243,0.01853 -0.00541,0.03082 -0.00901,0.04912 -0.00428,0.02176 -0.00817,0.04354 -0.011581,0.06546 -0.00162,0.01463 -0.00421,0.02932 -0.00378,0.04411 4.357e-4,0.01525 0.00388,0.03002 0.0072,0.04483 0.00526,0.03362 0.014144,0.0665 0.020365,0.09992 9.715e-4,0.0058 0.00287,0.01865 0.00493,0.02381 0.00207,0.0052 0.00528,0.0098 0.00792,0.01468 0,0 0.3352615,0.139159 0.3352615,0.139159 v 0 c -0.014893,-0.0054 -0.016202,-0.0058 -0.021578,-0.02157 -0.010376,-0.0319 -0.021182,-0.0639 -0.024852,-0.09743 -2.577e-4,-0.0053 -2.602e-4,-0.01061 -7.731e-4,-0.01589 -0.00222,-0.02282 -0.00898,-0.04518 -0.00899,-0.06829 -2.161e-4,-0.0064 -7.499e-4,-0.01276 -6.482e-4,-0.01914 6.167e-4,-0.03874 0.00982,-0.0773 0.022539,-0.113685 0.00647,-0.01935 0.012452,-0.03951 0.02312,-0.05702 z" />
  <path
     style="fill:#ffffff"
     id="path24"
     d="m 5.6802994,20.812309 c -8.492e-4,0.0036 -0.00136,0.0072 -0.00255,0.01065 -0.01,0.02901 -0.027192,0.05492 -0.041041,0.08209 -0.00386,0.0076 -0.00725,0.01536 -0.010874,0.02304 -0.014241,0.03326 -0.018656,0.06858 -0.012325,0.104254 0.00155,0.0088 0.010008,0.03945 0.01253,0.04881 0.010615,0.04075 0.025404,0.08016 0.0419,0.118845 0.0138,0.0281 0.025359,0.05727 0.039851,0.08503 0,0 0.3370325,0.143215 0.3370325,0.143215 v 0 c -0.00279,-0.0023 -0.00577,-0.0043 -0.00837,-0.0068 -0.02115,-0.02012 -0.033084,-0.04838 -0.046367,-0.07373 -0.017261,-0.03842 -0.034079,-0.07698 -0.047338,-0.117022 -0.00932,-0.02653 -0.022705,-0.05952 -0.022029,-0.08789 4.617e-4,-0.01938 0.00368,-0.02442 0.00977,-0.04276 0.00305,-0.007 0.00579,-0.01416 0.00916,-0.02103 0.014968,-0.03051 0.035154,-0.05908 0.062879,-0.07918 z" />
  <path
     style="fill:#ffffff"
     id="path25"
     d="m 5.8129974,20.841183 c -0.00571,0.02596 -0.015151,0.05104 -0.020596,0.07707 -0.00249,0.01189 -0.004,0.02396 -0.00606,0.03593 -0.00211,0.01225 -0.00429,0.0245 -0.00643,0.03674 -0.00974,0.04917 -0.012629,0.09937 -0.0096,0.14934 0.00276,0.02814 0.00911,0.05567 0.012861,0.08366 0.00337,0.0243 0.00516,0.04874 0.00695,0.07319 0,0 0.3240748,0.163372 0.3240748,0.163372 v 0 c -3.45e-4,-0.0253 -0.00252,-0.05049 -0.00465,-0.0757 -0.00249,-0.01859 -0.00585,-0.03716 -0.010858,-0.05525 -0.00139,-0.005 -0.00323,-0.0099 -0.00459,-0.01499 -0.00148,-0.0055 -0.00262,-0.01107 -0.00393,-0.0166 -0.00422,-0.02022 -0.00751,-0.0406 -0.010205,-0.06109 -0.00195,-0.01487 -0.00477,-0.04044 -0.00479,-0.05508 -1.19e-5,-0.01083 0.00117,-0.02162 0.00176,-0.03243 0.00228,-0.01106 0.00353,-0.02238 0.00684,-0.03317 0.0031,-0.01008 0.0079,-0.01956 0.012303,-0.02914 0.00959,-0.02083 0.021435,-0.04369 0.038437,-0.0595 z" />
  <path
     style="fill:#ffffff"
     id="path26"
     d="m 5.9262786,20.84509 c -9.61e-4,0.0034 -0.00163,0.0068 -0.00288,0.01012 -0.00739,0.0194 -0.018203,0.03772 -0.027257,0.05633 -0.012626,0.02596 -0.012482,0.02642 -0.024169,0.05328 -0.014614,0.03706 -0.023214,0.07597 -0.022549,0.115924 3.307e-4,0.01989 0.0023,0.02951 0.00508,0.04874 0.00603,0.03209 0.016732,0.06299 0.023307,0.09495 0.00433,0.01923 0.00647,0.0388 0.00853,0.05837 0,0 0.3277964,0.159545 0.3277964,0.159545 v 0 c -0.00317,-0.01167 -0.00507,-0.02298 -0.00601,-0.03505 -3.375e-4,-0.0043 -2.312e-4,-0.0086 -7.266e-4,-0.01294 -4.891e-4,-0.0042 -0.00148,-0.0084 -0.00222,-0.0126 -0.00895,-0.03402 -0.022168,-0.06654 -0.033827,-0.09969 -0.00502,-0.0158 -0.0095,-0.0279 -0.012099,-0.04444 -0.00553,-0.03525 -9.588e-4,-0.0704 0.012713,-0.103292 0.00403,-0.0083 0.00765,-0.01673 0.012077,-0.02479 0.016268,-0.02961 0.038366,-0.05595 0.063764,-0.07811 z" />
  <path
     style="fill:#ffffff"
     id="path27"
     d="m 6.0779018,20.834178 c -0.023655,0.02501 -0.053717,0.04285 -0.078183,0.06701 -0.0057,0.0056 -0.01075,0.01187 -0.016125,0.0178 -0.026279,0.03858 -0.030002,0.07731 -0.036151,0.121786 -0.00657,0.03713 -0.011488,0.07445 -0.0147,0.112007 -0.00272,0.03285 0.00107,0.06581 0.00291,0.09862 0.00263,0.02233 0.00178,0.04481 0.00303,0.0672 -3.44e-4,0.01765 0.0033,0.03482 0.0067,0.05202 6.038e-4,0.0025 0.00121,0.0049 0.00181,0.0074 0,0 0.3338424,0.15722 0.3338424,0.15722 v 0 c -9.673e-4,-0.0024 -0.00193,-0.0048 -0.0029,-0.0073 -0.00637,-0.01464 -0.00928,-0.02979 -0.010447,-0.04567 -0.00134,-0.01 -0.00355,-0.01984 -0.00482,-0.0298 -0.00171,-0.01339 -0.00152,-0.027 -0.00349,-0.04037 -0.00475,-0.03157 -0.00908,-0.06318 -0.00921,-0.09518 0.00131,-0.03689 0.00441,-0.0737 0.011996,-0.109895 0.00308,-0.01922 0.00329,-0.01856 0.00514,-0.0377 0.00231,-0.02388 0.00391,-0.0477 0.018302,-0.06803 0.00415,-0.0049 0.00793,-0.0102 0.012447,-0.0148 0.023839,-0.02422 0.05535,-0.04097 0.08847,-0.04792 z" />
</svg>
